<?xml version="1.0" encoding="UTF-8"?>
<svg width="745px" height="545px" viewBox="0 0 745 545" version="1.1" xmlns="http://www.w3.org/2000/svg" xmlns:xlink="http://www.w3.org/1999/xlink">
    <title>Artboard</title>
    <g id="Artboard" stroke="none" stroke-width="1" fill="none" fill-rule="evenodd">
        <g id="fint-cloud-accounting" transform="translate(0.000000, 78.000000)">
            <path d="M682.090619,175.92121 C682.090619,175.92121 686.194707,167.65674 682.614035,157.026117 C679.033364,146.395494 687.654763,142.152468 691.7858,145.788236 C695.916837,149.424003 697.43199,161.157753 682.090619,175.92121" id="Path" fill="#ABE1DD" fill-rule="nonzero"></path>
            <path d="M673.662058,181.815334 C673.662058,181.815334 671.540844,172.863356 662.010953,166.941684 C652.481061,161.020012 656.419859,152.260872 661.90076,152.426162 C667.38166,152.591451 676.058155,160.661885 673.662058,181.815334" id="Path" fill="#ABE1DD" fill-rule="nonzero"></path>
            <path d="M674.57115,182.777126 C674.57115,182.777126 683.770462,183.052609 691.482769,191.205687 C699.195076,199.358766 706.990028,193.739526 705.722809,188.396367 C704.455591,183.053207 694.813111,176.196692 674.57115,182.777126" id="Path" fill="#ABE1DD" fill-rule="nonzero"></path>
            <path d="M661.57078,197.2651 C661.57078,197.2651 670.770092,197.540583 678.4824,205.693662 C686.194707,213.84674 693.989658,208.2275 692.72244,202.884341 C691.455221,197.541182 681.812741,190.684666 661.57078,197.2651" id="Path" fill="#ABE1DD" fill-rule="nonzero"></path>
            <path d="M653.307508,213.212532 C653.307508,213.212532 662.506821,213.488014 670.219128,221.641093 C677.931435,229.794172 685.726387,224.174932 684.459168,218.831773 C683.191949,213.488613 673.549469,206.632098 653.307508,213.212532" id="Path" fill="#ABE1DD" fill-rule="nonzero"></path>
            <path d="M643.914759,233.42994 C643.914759,233.42994 653.11467,233.705422 660.826977,241.858501 C668.539285,250.01158 676.334236,244.392339 675.067018,239.04918 C673.799799,233.706021 664.15672,226.849506 643.914759,233.42994" id="Path" fill="#ABE1DD" fill-rule="nonzero"></path>
            <path d="M661.707922,197.157303 C661.707922,197.157303 659.587307,188.205326 650.056817,182.283654 C640.526326,176.361982 644.465125,167.602842 649.946624,167.768131 C655.428123,167.93342 664.104019,176.003855 661.707922,197.157303" id="Path" fill="#ABE1DD" fill-rule="nonzero"></path>
            <path d="M651.709711,214.647436 C651.709711,214.647436 649.589096,205.696057 640.058605,199.773786 C630.528115,193.851515 634.467512,185.092974 639.948412,185.258264 C645.429313,185.423553 654.105808,193.493987 651.709711,214.647436" id="Path" fill="#ABE1DD" fill-rule="nonzero"></path>
            <path d="M643.281748,233.019112 C643.281748,233.019112 641.161133,224.067134 631.630643,218.145462 C622.100153,212.22379 626.038951,203.46465 631.52045,203.62994 C637.001949,203.795229 645.677846,211.865663 643.281748,233.019112" id="Path" fill="#ABE1DD" fill-rule="nonzero"></path>
            <path d="M624.910072,317.773043 C625.400515,317.746007 625.792129,317.354394 625.819164,316.863951 C625.819164,316.616017 626.783352,293.066471 634.550157,263.649751 C641.683951,236.547082 656.229417,198.811994 684.89994,172.8933 C685.175943,172.524467 685.152483,172.011915 684.843942,171.669837 C684.535401,171.327758 684.027978,171.251723 683.632721,171.48834 C654.601676,197.737613 639.920864,235.857777 632.704425,263.20838 C624.909473,292.817938 623.91729,316.560322 623.91729,316.780707 C623.901967,317.303012 624.305126,317.742822 624.826829,317.773043 L624.909473,317.773043" id="Path" fill="#ABE1DD" fill-rule="nonzero"></path>
            <path d="M727.867994,243.37545 C731.589443,239.765115 733.853862,234.912727 734.230438,229.741471 C735.001789,220.84459 742.631451,220.487062 744.476584,224.425261 C746.321716,228.363461 743.732781,237.425631 727.867994,243.37545" id="Path" fill="#ABE1DD" fill-rule="nonzero"></path>
            <path d="M719.852657,245.001994 C720.422385,239.851438 719.068662,234.672015 716.0516,230.458923 C710.956375,223.132291 716.602564,217.981969 720.568911,219.827102 C724.535257,221.672235 728.308766,230.321182 719.850261,245.029542" id="Path" fill="#ABE1DD" fill-rule="nonzero"></path>
            <path d="M720.210784,246.019482 C720.210784,246.019482 726.84871,249.133629 729.905965,257.532846 C732.963219,265.932062 740.427592,264.280965 741.198943,259.984039 C741.970293,255.687114 737.094855,247.61668 720.210784,246.019482" id="Path" fill="#ABE1DD" fill-rule="nonzero"></path>
            <path d="M706.136033,252.465169 C706.136033,252.465169 712.773959,255.579317 715.831214,263.978533 C718.888469,272.377749 726.352842,270.726652 727.124192,266.429727 C727.895543,262.132801 723.020105,254.062367 706.136033,252.465169" id="Path" fill="#ABE1DD" fill-rule="nonzero"></path>
            <path d="M695.035892,261.52674 C695.035892,261.52674 701.673818,264.640888 704.731073,273.040105 C707.788328,281.439321 715.252701,279.788223 716.024051,275.491298 C716.795402,271.194373 711.919964,263.123939 695.035892,261.52674" id="Path" fill="#ABE1DD" fill-rule="nonzero"></path>
            <path d="M681.787588,273.315587 C681.787588,273.315587 688.425514,276.429735 691.482769,284.828951 C694.540024,293.228167 702.004397,291.57707 702.775748,287.280145 C703.547098,282.983219 698.67166,274.912785 681.787588,273.315587" id="Path" fill="#ABE1DD" fill-rule="nonzero"></path>
            <path d="M706.273774,252.438818 C706.843387,247.288271 705.489676,242.108889 702.472717,237.895748 C697.376893,230.569116 703.023682,225.418195 706.989429,227.263927 C710.955177,229.109658 714.729285,237.758006 706.27078,252.466367" id="Path" fill="#ABE1DD" fill-rule="nonzero"></path>
            <path d="M693.438694,262.051355 C694.008307,256.900807 692.654595,251.721425 689.637637,247.508284 C684.542412,240.181652 690.188601,235.03133 694.154948,236.876463 C698.121294,238.721596 701.894803,247.370543 693.436298,262.078903" id="Path" fill="#ABE1DD" fill-rule="nonzero"></path>
            <path d="M681.45701,272.793368 C682.02668,267.642816 680.672963,262.463414 677.655953,258.250297 C672.560727,250.923666 678.206917,245.772745 682.173264,247.618477 C686.13961,249.464208 689.913119,258.112556 681.454614,272.820916" id="Path" fill="#ABE1DD" fill-rule="nonzero"></path>
            <path d="M641.215631,328.898336 C641.588396,329.037773 642.006049,328.870712 642.179819,328.512661 C642.262464,328.347371 650.414944,311.435752 665.398786,292.400523 C679.198055,274.882842 701.756463,251.91121 730.897701,242.05074 C731.21951,241.866525 731.364707,241.479398 731.243412,241.128993 C731.122118,240.778588 730.768661,240.564071 730.401833,240.618232 C700.877315,250.619437 678.096724,273.808461 664.159116,291.491431 C649.093227,310.634457 640.857504,327.683818 640.803006,327.849108 C640.625743,328.229706 640.78544,328.68218 641.162331,328.867195 L641.217428,328.867195" id="Path" fill="#ABE1DD" fill-rule="nonzero"></path>
            <path d="M97.752504,241.557267 C99.2855255,240.507633 101.290574,240.45094 102.880456,241.412273 C104.470338,242.373606 105.351573,244.17551 105.134232,246.020679 C109.980646,248.663698 114.662445,251.597971 119.153887,254.807367 C116.654914,249.462984 114.79668,243.841846 113.61789,238.061037 C111.259162,237.724531 109.511479,235.697593 109.525745,233.315026 C109.540011,230.932458 111.311841,228.926594 113.674429,228.618357 C116.037017,228.310121 118.264171,229.794255 118.889241,232.093412 C119.514311,234.392568 118.345167,236.800051 116.151728,237.730458 C117.969912,247.398091 122.872299,256.708195 123.64365,258.140105 C132.051181,264.634907 139.917675,271.801414 147.165647,279.569035 C153.33219,286.067127 159.03832,292.987122 164.242556,300.278718 L162.121941,301.711226 C156.986706,294.539182 151.363963,287.729059 145.293565,281.329128 C142.125518,277.940695 138.35201,274.167785 134.053887,270.230185 C128.11459,270.585843 122.285756,271.994132 116.839236,274.389369 C117.388583,276.688648 116.158911,279.041037 113.957413,279.902358 C111.755915,280.763678 109.256367,279.870319 108.099547,277.80871 C106.942728,275.7471 107.482685,273.148201 109.364975,271.718008 C111.247265,270.287816 113.895807,270.464045 115.572018,272.131013 C120.608518,269.91986 125.946427,268.471645 131.409855,267.834088 C123.614904,260.975776 114.360494,253.979723 104.114349,248.388031 C102.973633,249.893404 101.047746,250.577414 99.2130423,250.128811 C97.3783388,249.680207 95.9853659,248.184702 95.6679805,246.322808 C95.3505952,244.460914 96.1694387,242.588374 97.7519051,241.557267" id="Path" fill="#F6D2A6" fill-rule="nonzero"></path>
            <path d="M162.177038,259.460623 C156.491637,257.713859 150.543995,256.977473 144.60426,257.284912 C144.314243,259.633692 142.335445,261.408192 139.969063,261.441556 C137.60268,261.47492 135.574641,259.756913 135.21852,257.417243 C134.8624,255.077573 136.287443,252.833973 138.556587,252.161764 C140.825731,251.489555 143.242877,252.594949 144.218585,254.751073 C149.709356,254.451307 155.214151,254.971248 160.551692,256.293774 C155.676254,247.149558 149.4791,237.316037 141.849437,228.474851 C139.81826,229.713406 137.18477,229.264139 135.679117,227.422208 C134.173463,225.580277 134.256974,222.910046 135.874785,221.165801 C137.492595,219.421556 140.149012,219.13773 142.098825,220.50079 C144.048637,221.86385 144.694428,224.456158 143.611925,226.574622 C147.216967,230.756428 150.565035,235.153055 153.637685,239.740281 C153.183185,233.865679 153.424408,227.957949 154.356334,222.139956 C152.361771,221.033059 151.439173,218.661962 152.161073,216.498085 C152.882973,214.334208 155.044388,212.991981 157.304019,213.304342 C159.56365,213.616704 161.279878,215.494961 161.387673,217.773531 C161.495467,220.052102 159.964219,222.08399 157.744168,222.608276 C157.454367,222.672231 157.159251,222.70912 156.862625,222.718469 C155.155233,232.41365 156.476949,242.852633 156.697335,244.45043 C166.94309,261.169485 174.752367,279.264155 179.889353,298.188047 L177.410611,298.794108 C175.1298,290.271986 172.268481,281.915932 168.846704,273.784506 C167.084216,269.515129 164.880358,264.612741 162.236326,259.461821" id="Path" fill="#F6D2A6" fill-rule="nonzero"></path>
            <path d="M54.0957436,306.918441 C28.9822228,306.923625 6.91111483,323.566935 -8.51051991e-15,347.710784 L108.191487,347.710784 C101.280372,323.566935 79.2092644,306.923625 54.0957436,306.918441" id="Path" fill="#D5F0EE" fill-rule="nonzero"></path>
            <path d="M201.702162,306.918441 C176.588642,306.923625 154.517534,323.566935 147.606419,347.710784 L255.797906,347.710784 C248.886791,323.566935 226.815683,306.923625 201.702162,306.918441" id="Path" fill="#D5F0EE" fill-rule="nonzero"></path>
            <path d="M131.382906,289.455856 C95.5106949,289.461825 63.980738,313.227419 54.0957436,347.710784 L208.643119,347.710784 C198.758063,313.227206 167.227791,289.461557 131.355358,289.455856" id="Path" fill="#D5F0EE" fill-rule="nonzero"></path>
            <path d="M537.074932,304.770277 C512.499204,304.769771 490.898095,321.054417 484.134417,344.681077 L590.011853,344.681077 C583.23925,321.060548 561.643629,304.780039 537.071338,304.770277" id="Path" fill="#ABE1DD" fill-rule="nonzero"></path>
            <path d="M681.486355,304.770277 C656.910626,304.769771 635.309517,321.054417 628.54584,344.681077 L734.423276,344.681077 C727.650673,321.060548 706.055051,304.780039 681.482761,304.770277" id="Path" fill="#ABE1DD" fill-rule="nonzero"></path>
            <path d="M612.680454,287.66582 C577.580753,287.673429 546.733235,310.934474 537.073135,344.678682 L688.288971,344.678682 C678.628871,310.934474 647.781353,287.673429 612.681652,287.66582" id="Path" fill="#ABE1DD" fill-rule="nonzero"></path>
            <path d="M616.922283,375.886037 L155.262432,375.886037 C146.7291,375.886037 139.811467,368.968404 139.811467,360.435072 C139.811467,351.90174 146.7291,344.984108 155.262432,344.984108 L616.921085,344.984108 C625.454417,344.984108 632.37205,351.90174 632.37205,360.435072 C632.37205,368.968404 625.454417,375.886037 616.921085,375.886037" id="Path" fill="#6FA4A1" fill-rule="nonzero"></path>
            <path d="M613.396708,337.02386 C604.267495,337.016645 596.240687,343.064984 593.730864,351.84242 L633.063151,351.84242 C630.553268,343.06477 622.526143,337.016378 613.396708,337.02386" id="Path" fill="#ABE1DD" fill-rule="nonzero"></path>
            <path d="M667.023533,337.02386 C657.89432,337.016645 649.867512,343.064984 647.357689,351.84242 L686.689976,351.84242 C684.172096,343.07052 676.150244,337.025916 667.024132,337.02386" id="Path" fill="#ABE1DD" fill-rule="nonzero"></path>
            <path d="M641.491113,330.661423 C628.449223,330.661893 616.986103,339.303765 613.396109,351.841821 L669.557371,351.841821 C665.96766,339.303741 654.504802,330.661638 641.462966,330.660824" id="Path" fill="#ABE1DD" fill-rule="nonzero"></path>
            <path d="M286.839373,366.413039 C274.744627,366.412613 264.113356,374.425956 260.782938,386.053131 L312.86826,386.053131 C309.537178,374.426668 298.906069,366.41418 286.811825,366.414835" id="Path" fill="#EFCE7D" fill-rule="nonzero"></path>
            <path d="M357.901833,366.413039 C345.807087,366.412613 335.175816,374.425956 331.845398,386.053131 L383.930719,386.053131 C380.599638,374.426668 369.968529,366.41418 357.874285,366.414835" id="Path" fill="#EFCE7D" fill-rule="nonzero"></path>
            <path d="M324.051045,358.012024 C306.77995,358.00757 291.596615,369.448341 286.839373,386.051334 L361.23457,386.051334 C356.477328,369.448341 341.293993,358.00757 324.022898,358.012024" id="Path" fill="#EFCE7D" fill-rule="nonzero"></path>
            <path d="M379.633794,378.476768 C373.206459,378.483409 367.558012,382.739399 365.779429,388.915752 L393.515707,388.915752 C391.737125,382.739399 386.088678,378.483409 379.661342,378.476768" id="Path" fill="#E4AD27" fill-rule="nonzero"></path>
            <path d="M417.450928,378.476768 C411.023593,378.483409 405.375146,382.739399 403.596564,388.915752 L431.332842,388.915752 C429.554259,382.739399 423.905812,378.483409 417.478477,378.476768" id="Path" fill="#E4AD27" fill-rule="nonzero"></path>
            <path d="M399.437978,373.987605 C390.246063,373.987899 382.166445,380.077665 379.634393,388.913955 L419.214015,388.913955 C416.682848,380.076715 408.603015,373.985809 399.41043,373.985209" id="Path" fill="#E4AD27" fill-rule="nonzero"></path>
            <path d="M633.530872,109.183223 C627.150647,109.182631 621.542394,113.410018 619.786101,119.543754 L647.247496,119.543754 C645.491256,113.409471 639.882264,109.181895 633.501527,109.183223" id="Path" fill="#E4AD27" fill-rule="nonzero"></path>
            <path d="M670.990478,109.183223 C664.610253,109.182631 659.002,113.410018 657.245707,119.543754 L684.707102,119.543754 C682.950863,113.409471 677.34187,109.181895 670.961133,109.183223" id="Path" fill="#E4AD27" fill-rule="nonzero"></path>
            <path d="M653.142219,104.748557 C644.037536,104.753228 636.03699,110.78778 633.530872,119.54076 L672.752966,119.54076 C670.247023,110.78766 662.24637,104.753027 653.14162,104.748557" id="Path" fill="#E4AD27" fill-rule="nonzero"></path>
            <path d="M681.649847,358.259959 C675.912583,358.257834 670.867521,362.055495 669.282488,367.569465 L693.989059,367.569465 C692.404263,362.055588 687.359408,358.2579 681.622299,358.259959" id="Path" fill="#999999" fill-rule="nonzero"></path>
            <path d="M715.363493,358.259958 C709.626162,358.257632 704.580991,362.055375 702.996133,367.569465 L727.702705,367.569465 C726.117427,362.054641 721.071102,358.256765 715.33295,358.259958" id="Path" fill="#999999" fill-rule="nonzero"></path>
            <path d="M699.30467,354.293613 C691.112622,354.294841 683.911371,359.720146 681.650446,367.594019 L716.960691,367.597014 C714.700399,359.721768 707.498463,354.295093 699.305269,354.293613" id="Path" fill="#999999" fill-rule="nonzero"></path>
            <rect id="Rectangle" fill="#FFFFFF" fill-rule="nonzero" x="168.429289" y="70.2635611" width="373.629477" height="253.398814"></rect>
            <rect id="Rectangle" fill="#D4D4D4" fill-rule="nonzero" x="168.429289" y="70.2635611" width="373.629477" height="38.9795498"></rect>
            <rect id="Rectangle" fill="#E6E6E6" fill-rule="nonzero" x="211.975856" y="132.622576" width="286.536342" height="14.7496825"></rect>
            <rect id="Rectangle" fill="#FFFFFF" fill-rule="nonzero" x="251.445884" y="83.4573674" width="216.575812" height="12.5572026"></rect>
            <path d="M325.813533,222.414839 C313.859397,219.908549 302.016053,230.237339 290.006821,227.924486 C281.468067,226.271592 275.518846,218.807818 268.770727,213.29877 C257.362234,204.071862 242.663393,199.938422 228.117922,201.866853 C222.49064,202.660361 217.029639,204.362777 211.948308,206.90758 L211.948308,271.029084 L359.912854,271.029084 L359.912854,246.542898 C358.350317,246.212946 356.8335,245.69494 355.395543,245.000197 C344.102564,239.490551 338.098248,224.976226 325.811137,222.41424" id="Path" fill="#FAEFD4" fill-rule="nonzero"></path>
            <path d="M211.975856,158.155595 L211.975856,206.880032 C217.057184,204.335219 222.518186,202.632802 228.14547,201.839305 C242.691365,199.910032 257.390939,204.043062 268.800072,213.270024 C275.548191,218.77967 281.469863,226.270394 290.036166,227.89574 C302.045398,230.209192 313.861194,219.880402 325.842878,222.386093 C337.824562,224.891785 344.131909,239.463002 355.427283,244.97205 C356.865339,245.666553 358.382126,246.184549 359.944594,246.514751 L359.944594,158.155595 L211.975856,158.155595 Z" id="Path" fill="#FAEFD4" fill-rule="nonzero"></path>
            <rect id="Rectangle" fill="#E6E6E6" fill-rule="nonzero" x="368.368364" y="158.155595" width="130.143834" height="3.09019293"></rect>
            <rect id="Rectangle" fill="#E6E6E6" fill-rule="nonzero" x="368.368364" y="168.456837" width="130.143834" height="3.09019293"></rect>
            <rect id="Rectangle" fill="#E6E6E6" fill-rule="nonzero" x="368.368364" y="178.758079" width="130.143834" height="3.09019293"></rect>
            <rect id="Rectangle" fill="#E6E6E6" fill-rule="nonzero" x="368.368364" y="189.059321" width="130.143834" height="3.09019293"></rect>
            <rect id="Rectangle" fill="#E6E6E6" fill-rule="nonzero" x="368.368364" y="267.944281" width="130.143834" height="3.08779743"></rect>
            <path d="M211.975856,89.7371664 C211.975856,87.4401125 213.837986,85.5779823 216.13504,85.5779823 C218.432094,85.5779823 220.294224,87.4401125 220.294224,89.7371664 C220.294224,92.0342203 218.432094,93.8963505 216.13504,93.8963505 C213.837986,93.8963505 211.975856,92.0342203 211.975856,89.7371664" id="Path" fill="#999999" fill-rule="nonzero"></path>
            <path d="M197.735816,89.7371664 C197.735816,87.4401125 199.597946,85.5779823 201.895,85.5779823 C204.192054,85.5779823 206.054184,87.4401125 206.054184,89.7371664 C206.054184,92.0342203 204.192054,93.8963505 201.895,93.8963505 C199.597946,93.8963505 197.735816,92.0342203 197.735816,89.7371664" id="Path" fill="#F2BF80" fill-rule="nonzero"></path>
            <path d="M183.468227,89.7371664 C183.468227,87.4401125 185.330358,85.5779823 187.627412,85.5779823 C189.924466,85.5779823 191.786596,87.4401125 191.786596,89.7371664 C191.786596,92.0342203 189.924466,93.8963505 187.627412,93.8963505 C185.330358,93.8963505 183.468227,92.0342203 183.468227,89.7371664" id="Path" fill="#8987A8" fill-rule="nonzero"></path>
            <path d="M403.513919,72.852496 C402.294989,69.9332385 402.50896,66.6122677 404.092432,63.8735691 C408.168971,56.8499678 416.32205,43.8220498 421.224437,42.9129582 C428.000105,41.6457395 418.36002,65.994783 404.202625,74.533537 L403.513919,72.852496 Z" id="Path" fill="#AF7D61" fill-rule="nonzero"></path>
            <path d="M400.842339,65.9396865 C404.698493,69.1897789 408.306712,71.8086576 412.658734,74.9461616 C371.396274,132.484835 343.579148,149.727034 271.607596,156.640442 C255.357134,158.210691 260.288867,137.442319 279.622934,135.734928 C345.837504,129.8959 359.224148,116.81049 400.869887,65.9115394" id="Path" fill="#3B3E54" fill-rule="nonzero"></path>
            <path d="M313.226387,270.14754 L312.39994,271.029084 L246.212918,271.029084 C245.606857,269.265997 245.028344,267.531057 244.476182,265.795518 C243.392618,262.49013 242.391898,259.240038 241.474023,256.045241 C240.867962,253.933609 240.28905,251.849526 239.737287,249.79299 C238.470068,245.11039 237.396286,240.538581 236.432098,236.018875 C235.991326,233.870711 235.550555,231.721949 235.164879,229.628883 C234.173143,224.395517 233.365261,219.263162 232.741234,214.231817 C232.465752,212.055906 232.217818,209.907543 231.997432,207.786728 C230.651831,194.435946 230.338687,181.00122 231.060792,167.602243 C231.384428,160.871371 232.175854,154.171162 233.429341,147.550125 C236.817174,130.115088 257.447207,122.375233 271.521957,133.199891 L274.551664,135.540892 C282.309488,141.520805 286.185623,151.257645 284.660068,160.933175 C283.062271,171.593143 284.026459,186.824321 290.554192,209.795354 C290.958233,211.209097 291.380639,212.650588 291.821411,214.119827 C292.45502,216.215888 293.143726,218.361656 293.831833,220.564916 C294.84992,223.679064 295.952448,226.927359 297.16457,230.287645 C297.883219,232.323818 298.652174,234.391732 299.422926,236.512347 C300.8203,240.258108 302.335253,244.160176 303.967785,248.218549 L305.372745,251.661479 L306.502223,254.388155 C307.383766,256.564066 308.320206,258.795074 309.311543,261.081178 C310.30328,263.367082 311.04828,265.075072 311.928027,267.140591 L313.27789,270.197846" id="Path" fill="#3B3E54" fill-rule="nonzero"></path>
            <path d="M267.338219,142.675884 C283.891712,173.056793 265.741021,184.237781 284.690611,214.344405 C282.101676,219.57797 278.60365,224.315068 275.738633,229.436045 C270.407427,225.452345 264.750463,221.924305 258.827613,218.889264 C265.796117,201.784807 269.04621,162.342327 262.656218,145.843332 C264.170772,144.686306 265.770366,143.695169 267.338818,142.675884" id="Path" fill="#F6D2A6" fill-rule="nonzero"></path>
            <path d="M273.507826,79.9593408 C273.507826,79.9593408 284.467231,86.0463023 280.694321,93.0148071 C276.921411,99.9833119 268.082022,85.8522669 268.082022,85.8522669 C268.082022,85.8522669 268.770727,76.2948272 273.535374,79.9581431" id="Path" fill="#2D334A" fill-rule="nonzero"></path>
            <path d="M249.104285,106.09842 C254.640281,120.531298 269.183352,128.353798 277.997588,124.96297 C286.811825,121.572142 286.561495,108.244188 281.027295,93.8388585 C275.493095,79.4335289 265.520036,74.8335732 256.706399,78.2214068 C247.892761,81.6092404 243.568288,91.6900965 249.104285,106.122974" id="Path" fill="#AF7D61" fill-rule="nonzero"></path>
            <path d="M249.517508,106.208613 L265.657777,104.638364 C265.878163,106.841624 267.558006,127.913027 266.759707,135.845121 C266.153645,138.296314 262.132203,139.398244 257.753232,138.351411 C253.814433,137.387223 250.977564,135.018674 250.866174,132.760318 L250.838625,132.760318 C251.334494,127.995072 250.260113,113.94787 249.51631,106.235563" id="Path" fill="#AF7D61" fill-rule="nonzero"></path>
            <path d="M284.553469,109.430559 L283.947408,109.595848 C280.862605,110.50494 266.870498,114.856961 264.473802,119.759349 C261.802223,125.268995 271.690241,118.932902 274.940334,115.737906 C278.190426,112.54291 281.082391,113.672387 283.919859,113.452002 C286.757327,113.231616 288.710856,110.146813 284.52592,109.40301" id="Path" fill="#2D334A" fill-rule="nonzero"></path>
            <path d="M243.485643,97.7249558 C243.485643,97.7249558 242.989775,87.3135209 248.939594,81.1960169 C254.889413,75.0785129 269.04621,70.3162621 276.951355,81.9398191 C276.951355,81.9398191 281.826793,90.7265072 270.7542,95.6839912 C259.681608,100.641475 259.874445,93.9760008 255.961998,101.357729 C252.04955,108.739457 245.715852,106.067878 245.054695,107.692625 L243.485643,97.7249558 Z" id="Path" fill="#2D334A" fill-rule="nonzero"></path>
            <path d="M243.788674,112.488412 C245.083441,115.848698 250.068473,118.850856 252.492717,117.914216 C254.916961,116.977576 254.475591,114.030514 253.211367,110.667834 C251.947142,107.305153 248.749152,104.938999 246.324309,105.876837 C243.899465,106.814674 242.523252,109.126929 243.818018,112.487215" id="Path" fill="#AF7D61" fill-rule="nonzero"></path>
            <path d="M232.991564,257.257363 C235.768204,255.727383 239.100769,255.584676 241.998039,256.871688 C249.434863,260.176877 263.234132,266.872894 264.66664,271.663891 C266.649514,278.24672 241.391977,271.278215 231.421314,258.112556 L232.991564,257.257363 Z" id="Path" fill="#AF7D61" fill-rule="nonzero"></path>
            <path d="M241.144043,252.822697 C238.665301,256.954932 237.28789,261.386604 234.809148,265.960808 C165.426531,229.740872 162.865145,176.912347 234.726503,136.670969 C250.949417,127.581849 255.879952,149.285663 237.728662,158.40293 C175.505591,189.664184 194.347383,222.30285 241.142247,252.822697" id="Path" fill="#3B3E54" fill-rule="nonzero"></path>
            <rect id="Rectangle" fill="#218780" fill-rule="nonzero" x="372.858127" y="229.713923" width="25.6156632" height="39.7730587"></rect>
            <rect id="Rectangle" fill="#D5F0EE" fill-rule="nonzero" x="404.257721" y="238.720398" width="25.6156632" height="30.7468207"></rect>
            <rect id="Rectangle" fill="#ABE1DD" fill-rule="nonzero" x="435.657315" y="216.024847" width="25.6156632" height="53.4399759"></rect>
            <rect id="Rectangle" fill="#2CB4AB" fill-rule="nonzero" x="467.057508" y="207.981961" width="25.6156632" height="61.4936415"></rect>
            <path d="M517.819916,267.420864 C515.478915,267.723895 510.355543,268.550342 509.473999,269.927154 C508.592456,271.303967 514.376986,271.717191 518.618814,269.816961 C518.343332,269.045611 518.095398,268.27426 517.819916,267.421463" id="Path" fill="#AF7D61" fill-rule="nonzero"></path>
            <path d="M588.991371,362.94256 L589.321949,362.94256 C589.753733,362.856431 590.133284,362.601531 590.37637,362.234427 C590.619457,361.867324 590.705972,361.418383 590.616716,360.987235 L588.247568,349.336129 C588.13763,348.747846 587.719241,348.26444 587.152812,348.07125 C586.586384,347.878059 585.959805,348.005061 585.513306,348.403562 C585.066808,348.802062 584.86967,349.41023 584.997476,349.994891 L587.366025,361.645997 C587.523292,362.417634 588.203276,362.971045 588.990772,362.968322" id="Path" fill="#FFFFFF" fill-rule="nonzero"></path>
            <path d="M585.356801,356.166294 C587.118995,356.108745 588.876,355.943144 590.617914,355.670426 C585.384349,327.686214 581.418601,290.116415 595.408911,263.950386 C591.166882,261.85712 586.897505,259.809767 582.60078,257.808328 C572.382182,280.61467 581.085627,332.068778 585.355603,356.139345" id="Path" fill="#7F7D9C" fill-rule="nonzero"></path>
            <path d="M591.058087,360.739301 C591.058087,360.739301 592.076174,364.981129 591.058087,365.118871 C590.04,365.256612 575.303493,365.669835 575.220249,365.008678 C574.917219,362.667677 586.953999,360.517118 588.138573,360.766849 C589.323147,361.01658 590.920346,360.160788 591.058087,360.766849" id="Path" fill="#F0B267" fill-rule="nonzero"></path>
            <path d="M610.475398,362.94256 L610.805977,362.94256 C611.237681,362.856283 611.617129,362.601351 611.860188,362.234289 C612.103247,361.867227 612.189832,361.418367 612.100744,360.987235 L609.732195,349.336129 C609.538714,348.451034 608.670687,347.885053 607.782747,348.06503 C606.894807,348.245007 606.315671,349.104313 606.482102,349.994891 L608.850651,361.645997 C609.007918,362.417634 609.687903,362.971045 610.475398,362.968322" id="Path" fill="#FFFFFF" fill-rule="nonzero"></path>
            <path d="M606.621041,355.560832 C608.411676,355.891411 610.201712,356.111797 612.019895,356.279482 C610.091519,326.118959 599.184216,289.513947 599.623191,262.300486 C594.959156,262.484141 590.295121,262.695344 585.631085,262.934096 C586.429984,292.433461 606.784534,318.159317 606.591696,355.563227" id="Path" fill="#7F7D9C" fill-rule="nonzero"></path>
            <path d="M612.542713,360.739301 C612.542713,360.739301 613.5608,364.981129 612.542713,365.118871 C611.524626,365.256612 596.788119,365.669835 596.704875,365.008678 C596.401845,362.667677 608.438625,360.517118 609.6226,360.766849 C610.806576,361.01658 612.404972,360.160788 612.542114,360.766849" id="Path" fill="#F0B267" fill-rule="nonzero"></path>
            <path d="M579.10455,264.997219 C582.211049,264.620363 585.344788,264.518958 588.469152,264.694188 C594.225535,264.942122 597.503774,265.823666 599.787882,266.70461 C600.559232,264.83173 601.247738,262.995181 601.8534,261.194964 C602.073786,260.561355 602.294172,259.900197 602.48701,259.267186 C602.679847,258.634176 603.120619,257.231013 603.42365,256.23748 C603.72668,255.243947 603.782974,254.915165 603.974614,254.282154 C604.360289,252.822098 604.718416,251.390189 605.021447,249.985229 C605.159188,249.326467 605.296929,248.662914 605.407122,248.002355 C605.710153,246.377409 605.958087,244.78041 606.150924,243.211359 C606.233569,242.522653 606.316214,241.861495 606.37131,241.200936 C606.793307,237.046737 606.894617,232.866199 606.674341,228.696435 C606.572106,226.59759 606.323569,224.508434 605.930539,222.444184 C605.433458,219.908378 603.658236,217.811057 601.239397,216.901872 C598.820558,215.992687 596.103371,216.401418 594.059047,217.981969 L593.123006,218.700619 C590.711375,220.564608 589.507693,223.595049 589.983107,226.605764 C590.506523,230.131338 590.148396,235.254711 587.7517,243.186805 L587.118091,245.197227 C586.81506,246.161415 586.459329,247.180699 586.071258,248.226933 L585.352609,250.154711 C584.913434,251.312535 584.445114,252.524457 583.947649,253.790478 L583.176298,255.718256 L582.294755,257.814317 L581.468308,259.687596 C580.734088,261.376822 579.935588,263.13951 579.072809,264.975659" id="Path" fill="#6F728A" fill-rule="nonzero"></path>
            <path d="M600.83711,209.995378 C597.697211,213.87908 592.463645,214.870816 590.067548,212.94244 C587.671451,211.014064 589.075812,206.938123 592.215711,203.054421 C595.355611,199.170719 598.881186,198.729948 601.249735,200.630776 C603.618284,202.531604 603.976411,206.084727 600.836511,209.96783" id="Path" fill="#FFFFFF" fill-rule="nonzero"></path>
            <path d="M600.83711,208.863505 L595.603545,208.340088 C595.5209,209.058738 594.997484,215.859558 595.24422,218.448493 C595.437058,219.247391 596.731825,219.605518 598.163734,219.247391 C599.595643,218.889264 600.366994,218.17301 600.394542,217.429807 L600.394542,217.429807 C600.229252,215.887106 600.587379,211.342846 600.835314,208.835957" id="Path" fill="#FFFFFF" fill-rule="nonzero"></path>
            <path d="M603.398497,207.954413 C603.398497,207.954413 604.583071,204.786965 603.3434,202.335772 C602.10373,199.884578 598.220028,196.992613 594.639357,199.801933 C594.639357,199.801933 592.270808,202.032741 595.190322,204.649823 C598.109835,207.266905 598.715896,205.200788 599.184216,207.872367 C599.652536,210.543947 601.883344,210.323561 601.910892,210.902074 L603.398497,207.954413 Z" id="Path" fill="#3B3E54" fill-rule="nonzero"></path>
            <path d="M572.467822,186.883609 C572.467822,186.883609 573.845233,178.482596 572.412725,176.882404 C570.980217,175.282211 568.749409,183.134654 570.650237,187.927448 L572.467822,186.883609 Z" id="Path" fill="#FFFFFF" fill-rule="nonzero"></path>
            <path d="M573.017588,186.167355 C571.72342,186.002066 570.262765,185.891873 569.106338,185.616391 C565.360378,206.880032 573.127781,220.596656 593.702717,226.078155 C597.503774,227.096242 598.523059,224.507906 598.550607,224.341419 C599.404602,220.237331 598.302673,219.934301 595.162773,219.135402 C574.064421,213.764096 573.733842,206.217677 573.017588,186.165559" id="Path" fill="#6F728A" fill-rule="nonzero"></path>
            <path d="M597.613967,198.644908 C597.613967,198.644908 600.561029,208.532926 602.105527,210.543947 C602.105527,210.543947 603.427842,210.213368 604.72201,206.687793 C604.72201,206.687793 607.310945,206.219473 607.613975,204.512082 C607.917006,202.804691 602.215719,197.791511 597.612769,198.673055" id="Path" fill="#6F6D8A" fill-rule="nonzero"></path>
            <path d="M602.185776,211.645277 C601.467126,212.554369 599.62379,212.995141 598.963232,212.471724 C598.302673,211.948308 598.742846,211.066764 599.4591,210.158272 C600.175354,209.249779 601.415024,208.835957 602.048035,209.359373 C602.396119,209.628856 602.608765,210.037231 602.629961,210.476929 C602.651157,210.916627 602.478777,211.343562 602.158227,211.645277" id="Path" fill="#FFFFFF" fill-rule="nonzero"></path>
            <path d="M599.128521,211.700374 C599.128521,211.700374 598.329622,210.901475 597.007307,211.865663 C595.684992,212.829851 594.225535,213.463461 592.820575,212.802303 C591.415615,212.141145 591.222777,211.700374 590.093899,211.149409 C588.96502,210.598445 589.76332,207.238159 590.011254,206.65785 C590.670016,205.225342 589.625579,206.161982 589.019518,207.017174 C588.413457,207.872367 586.458131,210.322363 588.330812,212.581318 C590.203493,214.840273 591.02994,215.336141 592.958316,215.142705 C594.886692,214.949268 597.695414,214.839674 599.126724,211.669232" id="Path" fill="#3B3E54" fill-rule="nonzero"></path>
            <path d="M561.283838,357.403569 C562.853489,358.092275 562.936133,359.387042 564.561479,359.882311 C566.930028,346.027946 568.14215,330.297906 569.492014,314.82119 L562.991829,314.82119 C563.818276,328.179686 564.176403,342.0616 561.284437,357.376021" id="Path" fill="#AF7D61" fill-rule="nonzero"></path>
            <path d="M561.8899,353.990583 L565.993987,353.494715 C567.730723,341.293244 568.693115,327.989244 569.766897,314.851133 L562.99123,314.851133 C563.76258,327.218493 564.120707,340.026025 561.861752,353.990583" id="Path" fill="#2D334A" fill-rule="nonzero"></path>
            <path d="M560.265153,356.580117 C558.653057,359.677195 555.780865,361.926212 552.387556,362.748525 C552.387556,362.748525 549.798621,363.685165 553.131359,363.988195 C556.464096,364.291226 561.670113,362.996459 563.239763,361.233372 C563.239763,361.233372 564.313545,364.758947 564.617174,363.657018 L566.24252,357.652701 L560.265153,356.580117 Z" id="Path" fill="#F2BF80" fill-rule="nonzero"></path>
            <path d="M555.940679,221.257814 C555.940679,221.257814 557.262994,226.574023 563.680535,224.893581 C570.098075,223.213139 570.759232,216.575213 569.932785,213.600603 C569.106338,210.625993 564.093758,205.557717 558.006198,209.303678 C551.918637,213.049638 555.940679,221.257814 555.940679,221.257814" id="Path" fill="#2D334A" fill-rule="nonzero"></path>
            <path d="M548.779337,237.095651 L548.779337,237.095651 C548.779337,237.095651 553.324196,227.951435 556.216162,226.326089 C556.742594,226.043827 557.240743,225.711728 557.703766,225.334353 C552.912769,224.316266 550.019007,230.70506 549.247657,235.057082 C549.082367,235.911077 548.944626,236.544686 548.806885,237.093256" id="Path" fill="#454A5F" fill-rule="nonzero"></path>
            <path d="M561.284437,220.155884 C558.392472,223.846748 553.461937,224.838485 551.203581,223.04785 C548.945225,221.257215 550.211845,217.429208 553.10381,213.738344 C555.995776,210.04748 559.300965,209.606109 561.55992,211.369795 C563.818875,213.133481 564.176403,216.465619 561.284437,220.156483" id="Path" fill="#AF7D61" fill-rule="nonzero"></path>
            <path d="M549.632733,233.294594 C549.632733,233.294594 548.227773,238.170032 546.850961,245.799695 C543.408031,264.724132 537.348617,298.740209 533.272078,304.249855 C533.272078,304.249855 540.075293,310.612299 546.465285,308.877359 C556.986913,306.012942 555.141781,266.405173 552.469602,247.096857 C551.780896,242.138774 552.717536,236.272199 552.139023,233.958746 C551.946186,233.214944 549.632733,233.299984 549.632733,233.299984" id="Path" fill="#454A5F" fill-rule="nonzero"></path>
            <path d="M517.517484,266.429727 C517.820514,267.807138 518.0409,269.128855 518.426576,270.588911 C541.591045,261.306355 548.421809,256.266226 556.271258,232.165715 C557.48338,228.474851 551.340723,226.849506 550.29449,232.331005 C546.603625,251.554879 534.209317,258.773115 517.545032,266.429727" id="Path" fill="#454A5F" fill-rule="nonzero"></path>
            <path d="M547.401925,357.405965 C548.972174,358.09467 549.054819,359.389437 550.679566,359.884707 C555.582552,331.101596 555.527456,294.275599 562.19293,268.274859 C557.868457,267.338219 553.543983,266.457275 549.220109,265.575732 C544.042239,295.928493 553.875161,323.059309 547.402524,357.405965" id="Path" fill="#AF7D61" fill-rule="nonzero"></path>
            <path d="M549.21951,265.575732 C553.543983,266.457275 557.868457,267.338219 562.192331,268.274859 C555.995177,292.430466 556.050273,325.813533 552.083927,353.494715 L547.979839,353.990583 C553.240953,321.241125 544.206929,294.909208 549.21951,265.575732" id="Path" fill="#2D334A" fill-rule="nonzero"></path>
            <path d="M579.324936,312.730518 C578.93926,311.481665 578.562768,310.224029 578.195458,308.957609 C573.32002,292.045989 569.601608,271.966322 567.866668,261.747725 C565.33283,246.901624 566.10418,240.373891 563.707484,233.157452 C562.689397,230.127745 562.52291,228.33711 560.071716,226.850105 L559.135076,226.354236 C558.688713,226.132311 558.216894,225.965787 557.730117,225.858368 C552.93912,224.840281 551.037094,231.14703 550.238195,235.500249 C550.072906,236.354244 549.935165,236.987854 549.797424,237.536423 L549.797424,237.536423 C549.138662,240.015165 547.897195,240.263099 550.072906,246.433304 C551.009546,249.104883 548.91588,264.749883 547.976845,270.037946 C547.673814,271.745936 547.480977,274.775643 546.792271,277.887994 C542.770828,296.535153 540.181893,316.476479 538.005583,335.70215 L537.785197,337.712572 C539.759179,337.749213 541.727471,337.489197 543.624224,336.941222 C548.141535,335.646455 552.273171,333.498292 556.900076,332.561652 C559.957815,332.02425 563.090408,332.080367 566.126937,332.726941 C568.027166,333.086266 569.735157,333.911515 571.718031,334.049256 C574.582448,334.242094 577.116885,333.99416 579.70582,332.341266 C581.413211,331.239337 583.947649,331.101596 585.489751,328.870788 C583.286491,324.573863 581.192826,318.955221 579.292596,312.757468" id="Path" fill="#6F728A" fill-rule="nonzero"></path>
            <path d="M566.792886,311.738782 C571.833613,311.821427 578.058316,309.617568 580.013641,308.624634 C575.138203,291.713014 569.629755,271.936379 567.894216,261.74533 C565.360378,246.899228 566.820434,240.45414 564.423738,233.238899 C563.405651,230.209192 562.551057,228.335912 560.099264,226.821359 C560.209457,231.586604 558.556564,241.912998 558.14334,261.08537 C557.619924,285.213428 566.819236,311.710635 566.819236,311.710635" id="Path" fill="#454A5F" fill-rule="nonzero"></path>
            <path d="M546.355092,356.580117 C544.742935,359.677143 541.87077,361.92614 538.477496,362.748525 C538.477496,362.748525 535.888561,363.685165 539.221298,363.988195 C542.554035,364.291226 547.760052,362.996459 549.329703,361.233372 C549.329703,361.233372 550.404084,364.758947 550.707114,363.657018 L552.33246,357.652701 L546.355092,356.580117 Z" id="Path" fill="#F2BF80" fill-rule="nonzero"></path>
            <path d="M560.622681,219.082102 L555.747243,218.283203 C555.63705,218.941965 554.729156,225.306805 554.810603,227.73045 C554.948344,228.474252 556.132918,228.915024 557.482182,228.66709 C558.831447,228.419156 559.603396,227.785547 559.685442,227.096841 L559.685442,227.096841 C559.630346,225.636785 560.236407,221.395555 560.594534,219.081503" id="Path" fill="#AF7D61" fill-rule="nonzero"></path>
            <path d="M565.938891,211.45244 C565.938891,211.45244 565.250185,206.852484 570.235816,205.227737 C575.221447,203.60299 580.922733,205.448123 580.316672,210.653541 C579.710611,215.858959 574.615386,222.056712 568.720663,220.128336 C562.825941,218.19996 565.938891,211.451841 565.938891,211.451841" id="Path" fill="#2D334A" fill-rule="nonzero"></path>
            <path d="M556.023324,210.956572 C559.405869,213.215118 560.777346,217.512446 559.328513,221.31291 C558.226584,224.563002 567.536688,215.859558 567.536688,215.859558 C567.536688,215.859558 561.587468,207.295651 556.023324,210.956572" id="Path" fill="#2D334A" fill-rule="nonzero"></path>
            <path d="M561.944996,222.71787 C561.25629,223.571865 559.549498,224.012637 558.915289,223.516768 C558.281081,223.0209 558.694904,222.194453 559.356061,221.341057 C560.017219,220.487661 561.173645,220.073838 561.779707,220.569707 C562.104761,220.82223 562.305951,221.201999 562.332289,221.612772 C562.358628,222.023546 562.207589,222.4259 561.917448,222.71787" id="Path" fill="#AF7D61" fill-rule="nonzero"></path>
            <path d="M568.913501,280.063706 C567.233658,281.7166 563.652986,285.490109 563.790727,287.114855 C563.928469,288.739602 568.776359,285.599703 570.977223,281.496214 L568.911105,280.063706" id="Path" fill="#AF7D61" fill-rule="nonzero"></path>
            <path d="M571.695872,281.963935 C570.511298,281.220133 569.437516,280.47633 568.170297,279.540289 C574.229711,262.766411 577.424707,248.553919 562.441463,237.040555 L562.441463,229.713923 C583.126592,248.912046 581.831825,256.18418 571.696471,281.963935" id="Path" fill="#454A5F" fill-rule="nonzero"></path>
            <path d="M602.158227,263.344924 C602.158227,263.344924 595.740687,268.963565 595.85088,271.084779 C595.961073,273.205993 602.654096,268.578489 604.223746,263.675502 L602.158227,263.344924 Z" id="Path" fill="#FFFFFF" fill-rule="nonzero"></path>
            <path d="M601.16709,263.399421 C601.965989,264.528899 602.847532,265.685326 603.480543,266.732158 C623.312275,252.519666 625.487986,237.480727 607.253453,221.478199 C603.893167,218.531137 602.157629,221.064976 602.075583,221.175169 C600.147207,224.122231 600.477785,225.031322 603.149365,227.207034 C621.107818,241.805201 615.020856,249.131833 601.166491,263.399421" id="Path" fill="#6F728A" fill-rule="nonzero"></path>
            <path d="M504.462018,271.056632 C505.50885,270.918891 506.582633,270.78115 507.601917,270.726053 C511.615571,270.418662 515.652125,270.631631 519.61115,271.359662 C521.692103,271.729424 523.744509,272.244927 525.753207,272.902363 C535.625128,276.133946 544.167316,282.509194 550.074104,291.053654 C551.285984,292.791908 552.372114,294.614533 553.324196,296.507605 C555.225812,300.2237 556.615835,304.180027 557.456431,308.268903 C557.676817,309.28699 557.869654,310.334421 558.007395,311.383051 C558.145137,312.43168 558.282878,313.504264 558.337974,314.52295 C558.645097,318.536607 558.432129,322.573127 557.704365,326.532182 C557.334527,328.613063 556.81923,330.66545 556.162263,332.67424 C552.930482,342.546058 546.555278,351.088188 538.010973,356.995137 C536.272774,358.207103 534.450143,359.293236 532.557022,360.245229 C528.841051,362.147136 524.884684,363.537173 520.795723,364.377464 C519.777637,364.59785 518.730205,364.790687 517.681576,364.928428 C516.632946,365.06617 515.560961,365.203911 514.541676,365.259007 C510.528023,365.566391 506.491469,365.353422 502.532444,364.625398 C500.451566,364.25528 498.399186,363.739783 496.390386,363.082697 C486.518589,359.850876 477.97647,353.475681 472.06949,344.931407 C470.857527,343.193205 469.771394,341.370575 468.819397,339.477456 C466.91747,335.761494 465.527432,331.805124 464.687162,327.716158 C464.466777,326.698071 464.273939,325.650639 464.136198,324.60201 C463.998457,323.55338 463.860715,322.480796 463.805619,321.46211 C463.49845,317.448454 463.711418,313.411928 464.439228,309.452878 C464.810428,307.381266 465.325917,305.338121 465.981929,303.338368 C469.213512,293.466448 475.58876,284.92426 484.133219,279.017472 C485.871287,277.805625 487.69371,276.719496 489.586572,275.767379 C493.302536,273.865459 497.258905,272.475421 501.34787,271.635145 C502.365957,271.414759 503.413987,271.221921 504.462018,271.08418" id="Path" fill="#F8DCB9" fill-rule="nonzero"></path>
            <path d="M511.95334,301.602231 L518.06785,277.474172 L519.610551,271.387211 C521.691506,271.756965 523.743912,272.272468 525.752609,272.929912 L524.209908,279.016873 L517.985205,303.530607 L536.962942,278.328167 C538.724766,279.483213 540.408648,280.752977 542.00367,282.129224 L538.23076,287.142404 L523.246917,307.028633 L544.6483,294.276198 L550.047154,291.053654 C551.258941,292.79176 552.345068,294.614178 553.297247,296.507006 L547.926539,299.702002 L526.194578,312.647275 L557.428883,308.267705 C557.649268,309.285792 557.842106,310.333822 557.979847,311.381853 C558.117588,312.429883 558.25533,313.502468 558.310426,314.521752 L527.461797,318.873774 L551.617404,324.988284 L557.676817,326.530985 C557.306833,328.611891 556.791334,330.664281 556.134116,332.673043 L550.047154,331.130941 L525.53342,324.906238 L545.722681,340.110466 L550.735261,343.883376 C549.580251,345.645225 548.310486,347.329109 546.934204,348.924104 L541.921025,345.178143 L522.034795,330.194301 L534.787231,351.595683 L538.009775,356.994538 C536.271777,358.206493 534.449347,359.292627 532.556423,360.24463 L529.361427,354.873324 L516.416154,333.141363 L520.795723,364.375667 C519.777637,364.596053 518.729606,364.788891 517.681576,364.926632 C516.633545,365.064373 515.560961,365.202114 514.541676,365.257211 L510.187259,334.40918 L504.072749,358.564787 L502.530647,364.6242 C500.449735,364.254507 498.397339,363.739207 496.388589,363.082098 L497.93129,356.995137 L504.155993,332.481403 L488.951764,352.670663 L485.178855,357.656294 C483.417123,356.501119 481.733248,355.231361 480.138127,353.855237 L498.895478,328.983376 L477.494096,341.735812 L472.095241,344.930808 C470.883284,343.192811 469.797151,341.37038 468.845149,339.477456 L474.215856,336.28246 L495.947818,323.337186 L464.713513,327.716756 C464.493127,326.69867 464.300289,325.651238 464.162548,324.602609 C464.024807,323.553979 463.887066,322.481395 463.831969,321.462709 L494.680599,317.110687 L470.524992,310.996178 L464.465579,309.454076 C464.836508,307.382462 465.351798,305.339313 466.007681,303.339566 L472.094642,304.882267 L496.608376,311.106969 L476.419116,295.902741 L471.405936,292.129831 C472.561005,290.368024 473.830767,288.684143 475.206994,287.089104 L480.220173,290.862014 L500.106403,305.845856 L487.353368,284.444473 L484.130824,279.046218 C485.868882,277.834357 487.691306,276.748228 489.584176,275.796125 L492.80672,281.19498 L505.724445,302.926941 L501.344875,271.692637 C502.362962,271.472251 503.410394,271.279413 504.459023,271.141672 C505.507653,271.003931 506.579638,270.86619 507.598923,270.811093 L511.95334,301.602231 Z" id="Path" fill="#F4CA96" fill-rule="nonzero"></path>
            <path d="M516.773682,358.725285 C494.286146,361.879551 473.498239,346.209938 470.338533,323.723166 C467.178828,301.236394 482.843412,280.444697 505.329419,277.279553 C527.815427,274.114409 548.610912,289.773963 551.781495,312.259204 C553.305045,323.063964 550.471936,334.031271 543.905967,342.746321 C537.339998,351.461371 527.579545,357.209576 516.773682,358.725285" id="Path" fill="#F1B770" fill-rule="nonzero"></path>
            <path d="M516.470651,356.414228 C500.926557,358.60072 485.596062,351.207693 477.628617,337.682922 C469.661172,324.158151 470.626064,307.165508 480.073312,294.629595 C489.52056,282.093682 505.58941,276.483603 520.786076,280.415646 C535.982742,284.347689 547.31405,297.047389 549.495591,312.592178 C552.473555,333.811964 537.689487,353.429506 516.470651,356.414228" id="Path" fill="#F4CA96" fill-rule="nonzero"></path>
            <path d="M530.710691,331.515418 L535.586129,336.831628 L528.83801,343.000036 L524.182958,337.93176 C519.142231,342.035848 513.330752,344.98291 508.840989,345.836905 L504.929739,334.295993 C510.060573,333.152064 514.81768,330.726121 518.756555,327.244843 C521.951551,324.297781 522.502516,322.589791 521.428135,321.43576 C517.571982,317.221479 502.20426,337.576628 490.772343,325.099076 C485.81426,319.70082 485.566326,311.575289 492.397689,303.284469 L487.632444,298.078453 L494.380563,291.910044 L499.063163,297.032818 C502.891768,294.113304 507.188694,291.882496 511.292781,290.918308 L515.396869,302.183738 C510.576527,303.533601 506.720374,305.571572 503.80086,308.243151 C500.881346,310.914731 500.327387,313.173686 501.377215,314.330113 C505.068079,318.351555 520.465145,298.051503 531.785072,310.363766 C536.522769,315.514088 536.908445,323.419232 530.683143,331.517215" id="Path" fill="#F1B770" fill-rule="nonzero"></path>
            <path d="M304.522343,47.0445941 C305.04576,47.5680105 305.569176,48.0914268 306.037496,48.6423915 C307.898149,50.7252139 309.481354,53.0401352 310.747645,55.5294494 C311.419829,56.8276945 312.000164,58.1714702 312.484381,59.5508923 C314.865718,66.3400441 314.952821,73.7231573 312.732315,80.5665997 C312.288166,81.9623691 311.745005,83.3246737 311.106969,84.6431391 C309.860616,87.251387 308.266912,89.6789087 306.369273,91.859578 C305.900953,92.4105426 305.405084,92.9615072 304.881668,93.4849236 C304.358252,94.00834 303.834835,94.5317564 303.283871,95.0000764 C301.201206,96.8609307 298.886257,98.4441542 296.396813,99.7102251 C295.098559,100.382391 293.754785,100.962726 292.37537,101.446961 C285.586226,103.828343 278.203098,103.915446 271.359662,101.694895 C269.96392,101.25067 268.601621,100.707511 267.283123,100.06955 C264.673312,98.8146192 262.245717,97.2116008 260.066684,95.3043047 C259.515719,94.8359847 258.964755,94.3401166 258.441338,93.8167002 C257.917922,93.2932838 257.394506,92.7698674 256.926186,92.2189027 C255.065294,90.1362673 253.482067,87.8213137 252.216037,85.3318449 C251.543997,84.0335316 250.963666,82.6897662 250.479301,81.3104019 C248.097875,74.5212657 248.010772,67.1381234 250.231367,60.2946945 C250.675422,58.8988914 251.218585,57.5365803 251.856712,56.2181551 C253.103111,53.6099326 254.69681,51.1824167 256.594409,49.0017162 C257.062729,48.4507516 257.558597,47.899787 258.082014,47.3763706 C258.60543,46.8529542 259.128846,46.3295378 259.679811,45.8612178 C261.762438,44.0003157 264.077393,42.4170878 266.566869,41.1510691 C267.865091,40.4788371 269.20887,39.8985007 270.588312,39.4143328 C277.377456,37.0329512 284.760584,36.9458483 291.604019,39.1663987 C292.999797,39.6105248 294.362103,40.1536861 295.680559,40.7917444 C298.288789,42.0381304 300.716306,43.6318309 302.896998,45.5294413 C303.447962,45.9977613 303.998927,46.4936294 304.522343,47.0170458" id="Path" fill="#F8DCB9" fill-rule="nonzero"></path>
            <path d="M290.889562,64.0119092 L306.754948,57.2086937 L310.748842,55.5007034 C311.421014,56.7989544 312.001349,58.1427292 312.485579,59.5221463 L308.491684,61.2301367 L292.378364,68.143545 L314.248067,67.9782556 C314.3537,69.4359121 314.362902,70.8989556 314.275615,72.3578256 L309.923593,72.3578256 L292.681395,72.4955667 L308.71207,78.9131069 L312.761061,80.5109043 C312.317019,81.9067122 311.773856,83.2690244 311.135715,84.5874437 L307.114273,82.9896463 L290.836262,76.4894614 L306.395623,91.8278376 C305.927303,92.3788023 305.431435,92.9297669 304.908018,93.4531833 C304.384602,93.9765997 303.861186,94.5000161 303.310221,94.968336 L287.940703,79.8168087 L294.743919,95.6821945 L296.451909,99.6760892 C295.153687,100.348321 293.809908,100.928658 292.430466,101.412826 L290.723075,97.4189309 L283.836017,81.3056109 L283.973758,98.8232918 L283.973758,103.175314 C282.516097,103.28083 281.053061,103.290032 279.594188,103.202862 L279.594188,98.85084 L279.457645,81.587082 L272.95746,97.6177572 L271.359662,101.666748 C269.963857,101.222701 268.601545,100.679537 267.283123,100.041403 L268.88092,96.0199598 L275.37871,79.738955 L260.067283,95.3013103 C259.516318,94.8329904 258.965354,94.3371222 258.441937,93.8137058 C257.918521,93.2902894 257.395105,92.766873 256.926785,92.2159084 L272.078312,76.8463907 L256.212926,83.6496061 L252.219031,85.3575965 C251.546886,84.0593328 250.966553,82.7155599 250.482295,81.3361535 L254.503738,79.5994172 L270.616459,72.7123593 L253.098778,72.8501005 L248.746756,72.8501005 C248.641153,71.3924428 248.63195,69.9294013 248.719208,68.4705305 L270.313428,68.3052412 L254.282753,61.887701 L250.26131,60.2623553 C250.705365,58.8665522 251.248529,57.504241 251.886656,56.1858159 L255.908099,57.7836133 L272.186109,64.2837982 L256.623754,48.9418288 C257.092074,48.3908641 257.587942,47.8398995 258.111359,47.3164831 C258.634775,46.7930667 259.158191,46.2696503 259.709156,45.8013304 L275.078674,60.9528577 L268.275458,45.1701166 L266.567468,41.1762219 C267.86569,40.5039899 269.209469,39.9236534 270.588911,39.4394855 L272.296901,43.4333802 L279.211507,59.5484968 L279.073766,42.0308159 L279.073766,37.7075402 C280.531424,37.6019421 281.994465,37.5927393 283.453336,37.679992 L283.453336,42.0320137 L283.591077,59.3017605 L290.008617,43.2710852 L291.633963,39.2220941 C293.029739,39.6662259 294.392044,40.2093871 295.710502,40.8474397 L294.112705,44.8964309 L287.61252,61.1468931 L302.95449,45.5845378 C303.505454,46.0528577 304.056419,46.5487259 304.579835,47.0721423 C305.103252,47.5955587 305.626668,48.1189751 306.094988,48.6699397 L290.889562,64.0119092 Z" id="Path" fill="#F4CA96" fill-rule="nonzero"></path>
            <path d="M261.471644,90.7289027 C253.252942,82.6395386 250.717613,70.3952962 255.048245,59.7074295 C259.378878,49.0195629 269.722298,41.99368 281.253879,41.9069622 C292.785459,41.8202444 303.233373,48.689776 307.724253,59.3113046 C312.215133,69.9328332 309.864234,82.2138202 301.768119,90.4258722 C290.721508,101.630671 272.685516,101.766302 261.471644,90.7289027" id="Path" fill="#F1B770" fill-rule="nonzero"></path>
            <path d="M262.601121,89.5994252 C253.472655,80.593183 251.976402,66.3932098 259.027255,55.6821512 C266.078108,44.9710926 279.71275,40.7314521 291.59421,45.5555794 C303.47567,50.3797066 310.295546,62.9243192 307.883789,75.5189502 C305.472033,88.1135813 294.5002,97.2512449 281.677074,97.3446704 C274.542395,97.3962658 267.679852,94.6094956 262.601121,89.5982275" id="Path" fill="#F4CA96" fill-rule="nonzero"></path>
            <path d="M282.322062,86.954795 L281.440518,91.8577814 L275.21881,90.7546543 L276.045257,86.0720539 C271.665687,85.0252211 267.589148,83.0698955 265.220599,80.9762299 L269.930748,73.9526286 C272.727221,76.2925846 276.071323,77.8853086 279.650482,78.5819293 C282.625092,79.1053457 283.782717,78.664574 283.974956,77.6177412 C284.663662,73.7340394 267.00824,73.8448312 269.04621,62.3033199 C269.927753,57.3176889 274.306724,53.7394132 281.742351,54.0125 L282.596346,49.1921584 L288.821049,50.2940876 L287.994602,55.0317846 C291.089722,55.8120717 293.98836,57.2285539 296.505808,59.1909686 L292.014248,66.1870217 C289.622388,64.274943 286.80814,62.9622707 283.806073,62.3584164 C281.106945,61.8900965 279.619341,62.5237058 279.426503,63.5980868 C278.767741,67.3164992 296.420768,67.2614027 294.410346,78.664574 C293.55635,83.4298191 289.369618,86.9829421 282.318469,86.9553939" id="Path" fill="#F1B770" fill-rule="nonzero"></path>
            <path d="M279.291158,39.690414 C279.070772,40.1587339 278.822838,40.5995056 278.572508,41.0402773 C277.609568,42.7179106 276.433818,44.2640388 275.074482,45.6402331 C274.369217,46.361922 273.614611,47.0336837 272.816125,47.6506551 C268.872729,50.7155321 264.035996,52.4081784 259.04201,52.4709968 C258.029464,52.4879251 257.016998,52.4326888 256.012303,52.3057074 C254.024886,52.0634564 252.079311,51.5537955 250.228372,50.7905547 L248.829401,50.1832958 L247.479538,49.4646463 C245.801908,48.5017007 244.255781,47.3259513 242.879582,45.9666198 C242.157699,45.2615404 241.485925,44.5069203 240.86916,43.7082637 C237.804322,39.7648461 236.11168,34.9281265 236.048818,29.9341479 C236.03206,28.921605 236.087296,27.9091516 236.214108,26.9044413 C236.456366,24.9170258 236.966027,22.9714517 237.72926,21.1205105 C237.922098,20.6521905 238.114936,20.1838706 238.335322,19.7155506 C238.555707,19.2472307 238.803641,18.806459 239.053971,18.3656873 C240.016928,16.6880652 241.192676,15.141939 242.551998,13.7657315 C243.25714,13.0439149 244.011756,12.3721451 244.810354,11.7553095 C248.753771,8.6904715 253.590491,6.99782994 258.584469,6.93496785 C259.597012,6.91822178 260.609465,6.97345738 261.614176,7.10025723 C263.600245,7.3448575 265.544189,7.85652776 267.393316,8.62139871 L268.770727,9.22745981 L270.120591,9.94610932 C271.798228,10.9090438 273.344357,12.0847942 274.720547,13.4441359 C275.442712,14.149122 276.114691,14.9037481 276.731568,15.702492 C279.796406,19.6459095 281.489047,24.4826291 281.551909,29.4766077 C281.568667,30.4891506 281.513432,31.5016041 281.38662,32.5063143 C281.144333,34.4937243 280.634673,36.4392946 279.871467,38.2902452 C279.678629,38.7585651 279.485792,39.226885 279.265406,39.6676568" id="Path" fill="#F8DCB9" fill-rule="nonzero"></path>
            <path d="M265.107412,34.484996 L273.067653,43.4082275 L275.078075,45.6665836 C274.372875,46.3883398 273.618263,47.0601057 272.819719,47.6770056 L270.809297,45.4186495 L262.711314,36.3576768 L267.641849,50.70791 C266.709862,51.1010435 265.752983,51.4323399 264.777432,51.6996463 L263.785695,48.8627773 L259.874445,37.5440474 L259.18574,49.4981833 L259.02045,52.5003416 C258.007904,52.51727 256.995438,52.4620337 255.990744,52.3350523 L256.156033,49.3328939 L256.844739,37.1859204 L250.206214,50.8181029 L248.828802,50.2120418 L247.478939,49.4933923 L254.061768,36.0247026 L245.138537,43.9849437 L242.879582,45.9977613 C242.157757,45.2926268 241.485987,44.5380108 240.86916,43.7394051 L243.127516,41.7289831 L252.162138,33.6034526 L240.676322,37.569799 L237.839453,38.5615354 C237.446255,37.6295732 237.114957,36.6726904 236.847717,35.6971182 L239.684586,34.7053818 L251.003316,30.8216801 L239.04918,30.1329743 L236.047022,29.9676849 C236.030118,28.9551392 236.085354,27.9426754 236.212311,26.9379783 L239.214469,27.1032677 L251.361443,27.7919735 L237.72926,21.0983521 C237.922098,20.6300322 238.114936,20.1617122 238.335322,19.6933923 C238.555707,19.2250723 238.803641,18.7843006 239.053971,18.3435289 L252.521463,24.9269574 L244.561222,16.0037259 L242.549003,13.7717203 C243.254203,13.0499641 244.008814,12.3781981 244.807359,11.7612982 L246.817781,14.0196543 L254.916961,23.0818248 L250.950615,11.5684606 L249.986427,8.73159164 C250.918412,8.33845322 251.875291,8.00715669 252.850844,7.73985531 L257.726282,21.8972508 L258.414988,9.94311495 L258.580277,6.94095659 C259.59282,6.92420649 260.605273,6.97944211 261.609984,7.10624598 L261.444695,10.1084043 L260.755989,22.2553778 L267.393316,8.62139871 L268.798276,9.22745981 L270.148139,9.94610932 L263.564711,23.4136013 L272.487942,15.4533601 L274.746298,13.4429381 C275.468112,14.1480833 276.139882,14.9026985 276.75672,15.7012942 L274.500161,17.7105185 L265.465539,25.8090997 L276.951355,21.8427532 L279.788223,20.8510169 C280.181291,21.7830294 280.512586,22.7399034 280.77996,23.7154341 L277.943091,24.7071704 L266.624361,28.6184204 L278.578497,29.3071262 L281.608203,29.4724156 C281.624929,30.4849579 281.569694,31.497409 281.442914,32.5021222 L278.440756,32.3368328 L266.32133,31.648127 L279.955309,38.2860531 C279.762472,38.754373 279.569634,39.2226929 279.349248,39.6910129 C279.128863,40.1593328 278.880928,40.6001045 278.630599,41.0408762 L265.107412,34.484996 Z" id="Path" fill="#F4CA96" fill-rule="nonzero"></path>
            <path d="M241.03385,21.0432556 C244.542541,13.8542734 252.036658,9.48713088 260.021071,9.97859099 C268.005483,10.4700511 274.907441,15.7233073 277.507987,23.2883279 C280.108532,30.8533485 277.895416,39.2399955 271.900799,44.5368756 C265.906182,49.8337557 257.310868,50.9975033 250.123569,47.4853658 C240.314076,42.6915389 236.245464,30.8551132 241.034449,21.0432556" id="Path" fill="#F1B770" fill-rule="nonzero"></path>
            <path d="M242.053734,21.5115756 C245.959105,13.5201732 254.965011,9.39954791 263.56523,11.6690544 C272.16545,13.9385609 277.965524,21.9663267 277.419281,30.8441674 C276.873039,39.7220082 270.132563,46.9781694 261.318989,48.1762266 C252.505414,49.3742837 244.072602,44.1806756 241.176383,35.7707797 C239.564305,31.0897092 239.879947,25.9597065 242.053734,21.5115756" id="Path" fill="#F4CA96" fill-rule="nonzero"></path>
            <path d="M248.140695,33.9064831 L244.72711,34.4298995 L244.068348,30.0778778 L247.345989,29.5820096 C247.070506,26.4678617 247.456182,23.3573071 248.310177,21.3462862 L253.956367,22.8889871 C253.031933,25.2422023 252.71916,27.7913654 253.047275,30.2982637 C253.350305,32.3637822 253.90127,33.0249397 254.645072,32.9147468 C257.3442,32.5015233 253.377854,20.9055145 261.42074,19.7215394 C264.894212,19.198123 268.196407,21.2917886 269.685209,26.2492725 L273.045494,25.7534043 L273.704256,30.105426 L270.399068,30.6012942 C270.564216,32.8127221 270.27355,35.0345086 269.545072,37.1290273 L263.953979,35.7240675 C264.685314,33.7263117 264.931625,31.5834038 264.672629,29.4718167 C264.397146,27.5991359 263.625796,26.7726889 262.910141,26.8828818 C260.321206,27.2685571 264.260004,38.8645659 256.299763,40.048541 C252.967026,40.5444092 249.716933,38.5884847 248.174232,33.9340314" id="Path" fill="#F1B770" fill-rule="nonzero"></path>
            <path d="M69.4652613,339.806238 L67.9776568,339.255273 C66.1043743,338.503548 64.3360391,337.512998 62.7165434,336.308211 C61.8613002,335.677297 61.0514257,334.987092 60.2928979,334.242693 C56.5626372,330.603903 54.1250376,325.8448 53.3519413,320.691359 C53.1940401,319.642786 53.1111849,318.584281 53.1040072,317.523911 C53.0715597,315.434114 53.3217592,313.349521 53.8478095,311.326756 C53.9654921,310.813654 54.1126602,310.307764 54.2885812,309.811604 C54.4538706,309.315736 54.6479059,308.793517 54.8395458,308.323999 C55.5913135,306.450737 56.5818601,304.682407 57.7866077,303.062886 C58.4173676,302.20752 59.107581,301.397635 59.8521262,300.63924 C63.4928157,296.911555 68.2509994,294.474427 73.4034606,293.698284 C74.452032,293.540376 75.510538,293.457521 76.5709084,293.45035 C78.660705,293.41791 80.745297,293.668109 82.7680627,294.194152 L84.2832154,294.634924 L85.7708199,295.185888 C87.6442443,295.937317 89.4126165,296.927887 91.0319333,298.13295 C91.8872453,298.763778 92.6971257,299.453988 93.4555788,300.198469 C97.1832637,303.839158 99.6203924,308.597342 100.396535,313.749803 C100.554424,314.798377 100.63728,315.856881 100.644469,316.917251 C100.676924,319.007048 100.426725,321.091642 99.9006672,323.114405 C99.7829949,323.62751 99.6358266,324.133401 99.4598955,324.629558 C99.2946061,325.125426 99.1005707,325.647645 98.9089309,326.117162 C98.1574416,327.990558 97.1668756,329.758922 95.961869,331.378276 C95.3309109,332.233485 94.640709,333.043356 93.8963505,333.801921 C90.2556873,337.529642 85.4974909,339.966777 80.3450161,340.742878 C79.296428,340.90064 78.2379325,340.983494 77.1775683,340.990812 C75.0877884,341.02293 73.0032397,340.772735 70.980414,340.24701 L69.4652613,339.806238" id="Path" fill="#F8DCB9" fill-rule="nonzero"></path>
            <path d="M72.852496,324.406777 L64.7545137,333.939064 L62.71834,336.334562 C61.8631861,335.703534 61.0533193,335.013337 60.2946945,334.269043 L62.3308682,331.873545 L70.5390434,322.205912 L56.4091961,329.367255 C55.8698743,328.454137 55.391334,327.50646 54.9766881,326.530386 L57.7860088,325.097878 L68.9136977,319.451688 L56.4636937,320.469775 L53.3237942,320.717709 C53.1658909,319.669137 53.0830357,318.610631 53.0758601,317.550261 L56.2157596,317.302327 L68.8580024,316.28424 L53.8190635,311.353706 C53.9367705,310.84061 54.0839382,310.334721 54.2598352,309.838553 C54.4251246,309.342685 54.61916,308.820466 54.8107998,308.350949 L69.6569011,313.226387 L60.1270096,305.128404 L57.7315113,303.092231 C58.3624261,302.236987 59.0526305,301.427113 59.7970297,300.668585 L62.1925281,302.704759 L71.8601608,310.940482 L66.1313264,299.621752 L64.6988183,296.812432 C65.6118579,296.272968 66.5595452,295.794423 67.5356873,295.379924 L68.9681953,298.189244 L74.614385,309.344482 L73.5962982,296.895076 L73.3483641,293.755177 C74.3969316,293.597235 75.45544,293.51438 76.5158119,293.507243 L76.763746,296.647142 L77.7818328,309.289385 L82.7123674,294.250446 L84.2275201,294.691218 L85.7151246,295.242182 L80.8396865,310.088284 L88.965217,300.503296 L91.0013907,298.107797 C91.8568149,298.738484 92.666705,299.428702 93.4250362,300.173316 L91.3888625,302.568814 L83.1806873,312.236447 L94.4994172,306.507014 L97.3087379,305.102054 C97.8482648,306.015059 98.326812,306.962751 98.741246,307.938923 L84.8042363,315.017621 L97.2542404,313.999534 L100.39414,313.7516 C100.552047,314.800171 100.634902,315.858677 100.642074,316.919047 L97.5021744,317.166982 L84.8599317,318.185068 L99.8988706,323.115603 C99.7811764,323.628702 99.6340085,324.134592 99.4580989,324.630756 C99.2928095,325.126624 99.0987741,325.648842 98.9071342,326.11836 L84.061033,321.242922 L93.5909244,329.340904 L95.9864228,331.377078 C95.3556801,332.232458 94.6654657,333.042344 93.9209043,333.800723 L91.5254059,331.76455 L81.8577733,323.556375 L87.5866077,334.875105 L89.0191158,337.684425 C88.1061138,338.223783 87.1584203,338.702131 86.1822468,339.116334 L84.7497387,336.307014 L79.103549,325.151777 L80.1216359,337.601781 L80.3695699,340.74168 C79.3209816,340.89944 78.2624863,340.982294 77.2021222,340.989614 L76.9541881,337.849715 L75.9361013,325.207472 L71.0055667,340.246411 L69.490414,339.805639 L68.0028095,339.254674 L72.852496,324.406777 Z" id="Path" fill="#F4CA96" fill-rule="nonzero"></path>
            <path d="M83.292078,297.608935 C94.1187591,301.154621 100.021879,312.805043 96.47775,323.632234 C92.9336212,334.459425 81.2840476,340.36422 70.4563472,336.821648 C59.6286468,333.279076 53.7221766,321.630352 57.2631913,310.802142 C58.9642988,305.600258 62.6627124,301.287505 67.5443984,298.813135 C72.4260844,296.338765 78.0909282,295.905583 83.292078,297.608935" id="Path" fill="#F1B770" fill-rule="nonzero"></path>
            <path d="M82.933951,298.710864 C93.1549287,302.057081 98.7281353,313.055357 95.3821647,323.276415 C92.0361941,333.497474 81.0380521,339.070945 70.8169132,335.725221 C60.5957743,332.379497 55.0220379,321.381489 58.3675161,311.160269 C59.9741495,306.250992 63.4654502,302.181175 68.0731604,299.846377 C72.6808705,297.511579 78.0274349,297.103114 82.9363465,298.710864" id="Path" fill="#F4CA96" fill-rule="nonzero"></path>
            <path d="M70.980414,306.781298 L69.9623272,303.307826 L74.3694453,302.013059 L75.3336334,305.318248 C78.5010812,304.574445 81.7787219,304.546897 83.9825804,305.152958 L83.1836817,311.212371 C80.615506,310.598532 77.9336152,310.645922 75.3887299,311.350113 C73.2926688,311.956174 72.6896021,312.617331 72.9099879,313.360535 C73.7088867,316.115358 85.1396061,310.330828 87.5357034,318.483907 C88.5825362,322.009482 86.8769413,325.730289 81.9721584,327.958702 L82.9638947,331.346535 L78.5567765,332.640703 L77.5650402,329.307966 C75.3065945,329.793659 72.9726856,329.812409 70.7067283,329.363063 L71.3403376,323.386294 C73.5077343,323.850605 75.7543765,323.793956 77.895619,323.221005 C79.7958481,322.67004 80.5396503,321.761547 80.3192645,321.017745 C79.547914,318.401262 68.1171945,324.131893 65.7486455,316.087211 C64.7569092,312.726925 66.3271584,309.063609 70.9271141,306.804654" id="Path" fill="#F1B770" fill-rule="nonzero"></path>
            <path d="M530.187275,111.661367 C520.216612,97.256037 522.612709,75.9648473 510.080659,63.7076809 C497.548609,51.4505145 476.532303,54.7844494 459.400297,49.9335651 C439.733855,44.3700201 425.191383,25.559369 422.822235,5.47790595 L386.078883,5.47790595 L386.078883,164.65578 L600.010064,164.65578 L600.010064,132.126708 C589.240502,131.024779 578.250555,131.327809 567.453445,130.090535 C553.240953,128.465189 538.312207,123.397512 530.159727,111.636214" id="Path" fill="#E4AD27" fill-rule="nonzero"></path>
            <path d="M422.822235,5.48090032 C425.190784,25.5599678 439.733855,44.3724156 459.400297,49.9365595 C476.532303,54.7844494 497.327625,51.2588746 510.080659,63.7106752 C522.833694,76.1624759 520.216612,97.2590314 530.187275,111.664361 C538.312805,123.425659 553.2691,128.492737 567.481592,130.118682 C578.278702,131.358352 589.241101,131.055322 600.038211,132.154855 L600.038211,5.48090032 L422.822235,5.48090032 Z" id="Path" fill="#F3C185" fill-rule="nonzero"></path>
            <line x1="415.247669" y1="31.3169494" x2="415.247669" y2="138.792182" id="Path" stroke="#FFFFFF" stroke-width="1.348"></line>
            <line x1="441.193911" y1="31.3169494" x2="441.193911" y2="138.792182" id="Path" stroke="#FFFFFF" stroke-width="1.348"></line>
            <line x1="467.112605" y1="31.3169494" x2="467.112605" y2="138.792182" id="Path" stroke="#FFFFFF" stroke-width="1.348"></line>
            <line x1="493.058248" y1="31.3169494" x2="493.058248" y2="138.792182" id="Path" stroke="#FFFFFF" stroke-width="1.348"></line>
            <line x1="518.976941" y1="31.3169494" x2="518.976941" y2="138.792182" id="Path" stroke="#FFFFFF" stroke-width="1.348"></line>
            <line x1="544.923183" y1="31.3169494" x2="544.923183" y2="138.792182" id="Path" stroke="#FFFFFF" stroke-width="1.348"></line>
            <line x1="570.841877" y1="31.3169494" x2="570.841877" y2="138.792182" id="Path" stroke="#FFFFFF" stroke-width="1.348"></line>
            <line x1="570.841877" y1="31.3169494" x2="415.688441" y2="31.3169494" id="Path" stroke="#FFFFFF" stroke-width="1.38"></line>
            <line x1="570.841877" y1="58.1998312" x2="415.688441" y2="58.1998312" id="Path" stroke="#FFFFFF" stroke-width="1.38"></line>
            <line x1="570.841877" y1="85.0545659" x2="415.688441" y2="85.0545659" id="Path" stroke="#FFFFFF" stroke-width="1.38"></line>
            <line x1="570.841877" y1="111.937448" x2="415.688441" y2="111.937448" id="Path" stroke="#FFFFFF" stroke-width="1.38"></line>
            <line x1="570.731684" y1="138.792182" x2="415.578248" y2="138.792182" id="Path" stroke="#FFFFFF" stroke-width="1.38"></line>
            <path d="M403.513919,72.852496 C402.294989,69.9332385 402.50896,66.6122677 404.092432,63.8735691 C408.168971,56.8499678 416.32205,43.8220498 421.224437,42.9129582 C428.000105,41.6457395 418.36002,65.994783 404.202625,74.533537 L403.513919,72.852496 Z" id="Path" fill="#D4AC96" fill-rule="nonzero"></path>
            <path d="M400.842339,65.9396865 C404.698493,69.1897789 408.306712,71.8086576 412.658734,74.9461616 C371.396274,132.484835 343.579148,149.727034 271.607596,156.640442 C255.357134,158.210691 260.288867,137.442319 279.622934,135.734928 C345.837504,129.8959 359.224148,116.81049 400.869887,65.9115394" id="Path" fill="#3B3E54" fill-rule="nonzero"></path>
            <path d="M313.226387,270.14754 L312.39994,271.029084 L246.212918,271.029084 C245.606857,269.265997 245.028344,267.531057 244.476182,265.795518 C243.392618,262.49013 242.391898,259.240038 241.474023,256.045241 C240.867962,253.933609 240.28905,251.849526 239.737287,249.79299 C238.470068,245.11039 237.396286,240.538581 236.432098,236.018875 C235.991326,233.870711 235.550555,231.721949 235.164879,229.628883 C234.173143,224.395517 233.365261,219.263162 232.741234,214.231817 C232.465752,212.055906 232.217818,209.907543 231.997432,207.786728 C230.651831,194.435946 230.338687,181.00122 231.060792,167.602243 C231.384428,160.871371 232.175854,154.171162 233.429341,147.550125 C236.817174,130.115088 257.447207,122.375233 271.521957,133.199891 L274.551664,135.540892 C282.309488,141.520805 286.185623,151.257645 284.660068,160.933175 C283.062271,171.593143 284.026459,186.824321 290.554192,209.795354 C290.958233,211.209097 291.380639,212.650588 291.821411,214.119827 C292.45502,216.215888 293.143726,218.361656 293.831833,220.564916 C294.84992,223.679064 295.952448,226.927359 297.16457,230.287645 C297.883219,232.323818 298.652174,234.391732 299.422926,236.512347 C300.8203,240.258108 302.335253,244.160176 303.967785,248.218549 L305.372745,251.661479 L306.502223,254.388155 C307.383766,256.564066 308.320206,258.795074 309.311543,261.081178 C310.30328,263.367082 311.04828,265.075072 311.928027,267.140591 L313.27789,270.197846" id="Path" fill="#3B3E54" fill-rule="nonzero"></path>
            <path d="M267.338219,142.675884 C283.891712,173.056793 265.741021,184.237781 284.690611,214.344405 C282.101676,219.57797 278.60365,224.315068 275.738633,229.436045 C270.407427,225.452345 264.750463,221.924305 258.827613,218.889264 C265.796117,201.784807 269.04621,162.342327 262.656218,145.843332 C264.170772,144.686306 265.770366,143.695169 267.338818,142.675884" id="Path" fill="#F6D2A6" fill-rule="nonzero"></path>
            <path d="M273.507826,79.9593408 C273.507826,79.9593408 284.467231,86.0463023 280.694321,93.0148071 C276.921411,99.9833119 268.082022,85.8522669 268.082022,85.8522669 C268.082022,85.8522669 268.770727,76.2948272 273.535374,79.9581431" id="Path" fill="#2D334A" fill-rule="nonzero"></path>
            <path d="M249.104285,106.09842 C254.640281,120.531298 269.183352,128.353798 277.997588,124.96297 C286.811825,121.572142 286.561495,108.244188 281.027295,93.8388585 C275.493095,79.4335289 265.520036,74.8335732 256.706399,78.2214068 C247.892761,81.6092404 243.568288,91.6900965 249.104285,106.122974" id="Path" fill="#D4AC96" fill-rule="nonzero"></path>
            <path d="M249.517508,106.208613 L265.657777,104.638364 C265.878163,106.841624 267.558006,127.913027 266.759707,135.845121 C266.153645,138.296314 262.132203,139.398244 257.753232,138.351411 C253.814433,137.387223 250.977564,135.018674 250.866174,132.760318 L250.838625,132.760318 C251.334494,127.995072 250.260113,113.94787 249.51631,106.235563" id="Path" fill="#D4AC96" fill-rule="nonzero"></path>
            <path d="M243.485643,97.7249558 C243.485643,97.7249558 242.989775,87.3135209 248.939594,81.1960169 C254.889413,75.0785129 269.04621,70.3162621 276.951355,81.9398191 C276.951355,81.9398191 281.826793,90.7265072 270.7542,95.6839912 C259.681608,100.641475 259.874445,93.9760008 255.961998,101.357729 C252.04955,108.739457 245.715852,106.067878 245.054695,107.692625 L243.485643,97.7249558 Z" id="Path" fill="#2D334A" fill-rule="nonzero"></path>
            <path d="M243.788674,112.488412 C245.083441,115.848698 250.068473,118.850856 252.492717,117.914216 C254.916961,116.977576 254.475591,114.030514 253.211367,110.667834 C251.947142,107.305153 248.749152,104.938999 246.324309,105.876837 C243.899465,106.814674 242.523252,109.126929 243.818018,112.487215" id="Path" fill="#D4AC96" fill-rule="nonzero"></path>
            <path d="M232.991564,257.257363 C235.768204,255.727383 239.100769,255.584676 241.998039,256.871688 C249.434863,260.176877 263.234132,266.872894 264.66664,271.663891 C266.649514,278.24672 241.391977,271.278215 231.421314,258.112556 L232.991564,257.257363 Z" id="Path" fill="#D4AC96" fill-rule="nonzero"></path>
            <path d="M241.144043,252.822697 C238.665301,256.954932 237.28789,261.386604 234.809148,265.960808 C165.426531,229.740872 162.865145,176.912347 234.726503,136.670969 C250.949417,127.581849 255.879952,149.285663 237.728662,158.40293 C175.505591,189.664184 194.347383,222.30285 241.142247,252.822697" id="Path" fill="#3B3E54" fill-rule="nonzero"></path>
            <polyline id="Path" stroke="#3B3E54" stroke-width="7.359" points="413.099506 98.9364791 441.772424 127.609397 482.096447 87.2853738 492.39709 97.5860169 533.054088 56.9326125 560.845462 84.7239871 569.687247 75.8822026"></polyline>
            <path d="M325.675792,171.54164 C326.895776,171.54164 328.065793,171.057003 328.928452,170.194344 C329.791111,169.331685 330.275748,168.161668 330.275748,166.941684 C330.275748,168.161668 330.760384,169.331685 331.623043,170.194344 C332.485702,171.057003 333.655719,171.54164 334.875703,171.54164 C332.335218,171.54164 330.275748,173.60111 330.275748,176.141596 C330.275748,173.60111 328.216277,171.54164 325.675792,171.54164" id="Path" fill="#FFFFFF" fill-rule="nonzero"></path>
            <path d="M300.115225,190.602022 C304.66369,190.602022 308.350949,186.914763 308.350949,182.366298 C308.350949,186.914763 312.038208,190.602022 316.586672,190.602022 C312.038208,190.602022 308.350949,194.289281 308.350949,198.837745 C308.350949,194.289281 304.66369,190.602022 300.115225,190.602022" id="Path" fill="#FFFFFF" fill-rule="nonzero"></path>
            <path d="M572.108497,22.2014791 C574.297736,22.2014924 576.396893,21.3298577 577.94222,19.7791372 C579.487546,18.2284166 580.351862,16.1262357 580.34422,13.9370096 C580.336548,16.1312262 581.204803,18.237787 582.756357,19.7893419 C584.307912,21.3408968 586.414473,22.2091513 588.60869,22.2014791 C584.060927,22.201479 580.373958,25.8876431 580.372966,30.4354059 C580.371974,25.8871753 576.684276,22.2008175 572.136045,22.2014791" id="Path" fill="#FFFFFF" fill-rule="nonzero"></path>
            <path d="M315.402098,8.23572347 C319.950563,8.23572347 323.637822,4.54846448 323.637822,0 C323.637859,2.18893129 324.509299,4.28779826 326.05967,5.83303859 C327.610204,7.37822331 329.712099,8.24255577 331.901093,8.2351246 C329.706877,8.22745244 327.600316,9.09570691 326.048761,10.6472618 C324.497206,12.1988167 323.628952,14.3053775 323.636624,16.4995941 C323.636293,11.9518312 319.949861,8.26513084 315.402098,8.26446945" id="Path" fill="#FFFFFF" fill-rule="nonzero"></path>
            <path d="M525.009405,309.783457 C529.55787,309.783457 533.245129,306.096198 533.245129,301.547733 C533.245129,306.096198 536.932388,309.783457 541.480852,309.783457 C536.932388,309.783457 533.245129,313.470716 533.245129,318.01918 C533.245129,313.470716 529.55787,309.783457 525.009405,309.783457" id="Path" fill="#FFFFFF" fill-rule="nonzero"></path>
            <path d="M551.423368,48.3669092 C551.452121,45.8470609 553.503012,43.8194387 556.023025,43.8194387 C558.543037,43.8194387 560.593928,45.8470609 560.622681,48.3669092 C560.622681,50.9073946 558.563211,52.966865 556.022725,52.966865 C553.48224,52.966865 551.422769,50.9073946 551.422769,48.3669092" id="Path" fill="#FFFFFF" fill-rule="nonzero"></path>
            <path d="M222.111809,48.3669092 C224.652294,48.3669092 226.711764,46.3074388 226.711764,43.7669534 C226.711764,44.9869375 227.196401,46.1569543 228.05906,47.0196133 C228.921719,47.8822724 230.091736,48.3669092 231.31172,48.3669092 C230.091736,48.3669092 228.921719,48.851546 228.05906,49.714205 C227.196401,50.5768641 226.711764,51.7468808 226.711764,52.966865 C226.711764,50.4263795 224.652294,48.3669092 222.111809,48.3669092" id="Path" fill="#FFFFFF" fill-rule="nonzero"></path>
            <path d="M332.644297,255.164297 C335.184782,255.164297 337.244252,253.104826 337.244252,250.564341 C337.244252,253.104826 339.303723,255.164297 341.844208,255.164297 C339.303723,255.164297 337.244252,257.223767 337.244252,259.764252 C337.244252,258.544268 336.759616,257.374252 335.896957,256.511592 C335.034298,255.648933 333.864281,255.164297 332.644297,255.164297" id="Path" fill="#FFFFFF" fill-rule="nonzero"></path>
            <path d="M72.4398714,328.925884 C57.571205,328.92841 44.5029789,338.780523 40.4084646,353.074305 L104.473075,353.081491 C100.380331,338.784701 87.3109419,328.929333 72.4398714,328.925884" id="Path" fill="#80D2CD" fill-rule="nonzero"></path>
            <path d="M159.80789,328.925884 C144.946965,328.941416 131.891987,338.79439 127.802235,353.081491 L191.841093,353.081491 C187.748349,338.784701 174.67896,328.929333 159.80789,328.925884" id="Path" fill="#80D2CD" fill-rule="nonzero"></path>
            <path d="M118.189699,318.569546 C96.9468372,318.574958 78.2793524,332.657005 72.4398714,353.081491 L163.939526,353.081491 C158.08987,332.667925 139.424862,318.598986 118.189699,318.597094" id="Path" fill="#80D2CD" fill-rule="nonzero"></path>
        </g>
    </g>
</svg>